<svg viewBox="0 0 22.6976 14.1655" xmlns="http://www.w3.org/2000/svg" xmlns:xlink="http://www.w3.org/1999/xlink" width="22.697632" height="14.165527" fill="none" customFrame="#000000">
	<path id="VK" d="M12.3609 14.1656C4.60651 14.1656 0.186047 8.84837 0 0L3.88279 0C4.01116 6.49302 6.87442 9.24465 9.14233 9.81209L9.14233 0L12.8019 0L12.8019 5.6C15.0344 5.36 17.3953 2.8093 18.1879 0L21.8474 0C21.2372 3.4586 18.6847 6.01116 16.8707 7.06046C18.2894 7.765 19.5425 8.76265 20.5469 9.98747C21.5514 11.2123 22.2845 12.6364 22.6977 14.1656L18.6716 14.1656C17.8065 11.4716 15.6502 9.38791 12.8019 9.10512L12.8019 14.1656L12.3609 14.1656Z" fill="rgb(17,17,17)" fill-rule="nonzero" />
</svg>
