<svg viewBox="0 0 20.7312 14.5117" xmlns="http://www.w3.org/2000/svg" xmlns:xlink="http://www.w3.org/1999/xlink" width="20.731201" height="14.511719" fill="none" customFrame="#000000">
	<path id="YouTube" d="M20.2977 2.26604C20.1798 1.82671 19.9484 1.42611 19.6267 1.10445C19.305 0.782798 18.9045 0.551401 18.4651 0.433486C16.8502 -2.47359e-06 10.3665 1.05755e-14 10.3665 1.05755e-14C10.3665 1.05755e-14 3.88278 -2.47359e-06 2.26603 0.433486C1.8272 0.552428 1.42715 0.784171 1.10565 1.10567C0.784154 1.42716 0.552422 1.82721 0.43348 2.26604C-8.16584e-06 3.88279 4.23021e-14 7.25581 4.23021e-14 7.25581C4.23021e-14 7.25581 -8.16584e-06 10.6288 0.43348 12.2456C0.552422 12.6844 0.784154 13.0845 1.10565 13.406C1.42715 13.7275 1.8272 13.9592 2.26603 14.0781C3.88278 14.5116 10.3665 14.5116 10.3665 14.5116C10.3665 14.5116 16.8484 14.5116 18.4651 14.0781C18.9045 13.9602 19.305 13.7288 19.6267 13.4072C19.9484 13.0855 20.1798 12.6849 20.2977 12.2456C20.7312 10.6288 20.7311 7.25581 20.7311 7.25581C20.7311 7.25581 20.7312 3.88279 20.2977 2.26604ZM8.29208 10.3646L8.29208 4.14698L13.6874 7.25581L8.29208 10.3646Z" fill="rgb(17,17,17)" fill-rule="nonzero" />
</svg>
