<svg viewBox="0 0 38 38" xmlns="http://www.w3.org/2000/svg" xmlns:xlink="http://www.w3.org/1999/xlink" width="38.000000" height="38.000000" fill="none" customFrame="#000000">
	<path id="Union" d="M20 1C20 0.447715 19.5523 0 19 0C18.4477 0 18 0.447715 18 1L18 18L1 18C0.447715 18 0 18.4477 0 19C0 19.5523 0.447715 20 1 20L18 20L18 37C18 37.5523 18.4477 38 19 38C19.5523 38 20 37.5523 20 37L20 20L37 20C37.5523 20 38 19.5523 38 19C38 18.4477 37.5523 18 37 18L20 18L20 1Z" fill="rgb(17,17,17)" fill-rule="evenodd" />
</svg>
