<svg viewBox="0 0 53.7402 53.7401" xmlns="http://www.w3.org/2000/svg" xmlns:xlink="http://www.w3.org/1999/xlink" width="53.740234" height="53.740112" fill="none" customFrame="#000000">
	<path id="Union" d="M20.0001 1C20.0001 0.447715 19.5524 0 19.0001 0C18.4479 0 18.0001 0.447715 18.0001 1L18.0001 18.0001L1 18.0001C0.447715 18.0001 -4.65516e-08 18.4479 3.63021e-15 19.0001C4.65516e-08 19.5524 0.447715 20.0001 1 20.0001L18.0001 20.0001L18.0001 37C18.0001 37.5523 18.4479 38 19.0001 38C19.5524 38 20.0001 37.5523 20.0001 37L20.0001 20.0001L37 20.0001C37.5523 20.0001 38 19.5524 38 19.0001C38 18.4479 37.5523 18.0001 37 18.0001L20.0001 18.0001L20.0001 1Z" fill="rgb(197,53,140)" fill-rule="evenodd" transform="matrix(0.707107,0.707107,-0.707107,0.707107,26.8701,0.00012207)" />
</svg>
