<svg viewBox="0 0 28.9983 28.949" xmlns="http://www.w3.org/2000/svg" xmlns:xlink="http://www.w3.org/1999/xlink" width="28.998291" height="28.948975" fill="none" customFrame="#000000">
	<path id="Vector 26 (Stroke)" d="M18.1484 18.382L0.595953 1.73344C0.267815 1.4222 0.256768 0.902987 0.571372 0.578071C0.881427 0.257853 1.39151 0.247001 1.7149 0.553742L19.3652 17.2952L19.3652 3.60625C19.3652 3.15483 19.7312 2.78888 20.1826 2.78888C20.634 2.78888 21 3.15483 21 3.60625L21 19C21 19.5523 20.5523 20 20 20L3.69953 20C3.25273 20 2.89053 19.6378 2.89053 19.191C2.89053 18.7442 3.25273 18.382 3.69953 18.382L18.1484 18.382Z" fill="rgb(17,17,17)" fill-rule="evenodd" transform="matrix(0.731354,-0.681998,0.681998,0.731354,-0.000244141,14.322)" />
</svg>
