<svg viewBox="0 0 112 112" xmlns="http://www.w3.org/2000/svg" xmlns:xlink="http://www.w3.org/1999/xlink" width="112.000000" height="112.000000" fill="none" customFrame="#000000">
	<rect id="гарантия" width="111.000000" height="111.000000" x="0.500000" y="0.500000" stroke="rgb(0,0,0)" stroke-opacity="0" stroke-width="1" />
	<path id="Union" d="M21.4865 19C20.6655 19 20 19.6655 20 20.4865L20 76.7793C20 77.6002 20.6655 78.2657 21.4865 78.2657L55.9741 78.2657L55.9741 76.9869C56.0846 89.1634 65.8976 99 77.9866 99C90.1442 99 100 89.0514 100 76.7791C100 64.5301 90.1815 54.596 78.0556 54.5584L80.2078 54.5584L80.2078 20.4865C80.2078 19.6655 79.5423 19 78.7213 19L21.4865 19ZM77.9176 54.5584L77.2348 54.5584L77.2348 21.973L60.3954 21.973L60.3954 35.3004C60.3954 35.8337 60.1097 36.3262 59.6467 36.5909C59.1836 36.8556 58.6143 36.8519 58.1547 36.5813L50.0743 31.8233L41.2743 36.6064C40.8137 36.8568 40.2553 36.846 39.8047 36.578C39.3541 36.3101 39.078 35.8246 39.078 35.3004L39.078 21.973L22.973 21.973L22.973 75.2928L55.9741 75.2928L55.9741 76.5714C56.0844 64.418 65.8603 54.5958 77.9176 54.5584ZM42.0509 32.8005L42.0509 21.973L57.4225 21.973L57.4225 32.7L50.8578 28.8346C50.408 28.5697 49.8523 28.5602 49.3937 28.8095L42.0509 32.8005ZM30.2914 50.1091C29.4704 50.1091 28.8049 50.7746 28.8049 51.5956C28.8049 52.4166 29.4704 53.0821 30.2914 53.0821L46.4355 53.0821C47.2565 53.0821 47.922 52.4166 47.922 51.5956C47.922 50.7746 47.2565 50.1091 46.4355 50.1091L30.2914 50.1091ZM87.0323 73.4592C87.6531 72.922 87.7209 71.9832 87.1838 71.3624C86.6466 70.7416 85.7079 70.6737 85.087 71.2109L76.0244 79.0521L72.5764 74.4115C72.0867 73.7525 71.1556 73.6152 70.4966 74.1048C69.8376 74.5944 69.7004 75.5255 70.19 76.1845L74.5929 82.1105C74.8395 82.4423 75.2131 82.6565 75.624 82.7015C76.0349 82.7466 76.4461 82.6185 76.7587 82.348L87.0323 73.4592ZM28.8049 63.4467C28.8049 62.6257 29.4704 61.9602 30.2914 61.9602L42.0326 61.9602C42.8535 61.9602 43.519 62.6257 43.519 63.4467C43.519 64.2676 42.8535 64.9332 42.0326 64.9332L30.2914 64.9332C29.4704 64.9332 28.8049 64.2676 28.8049 63.4467ZM97.0649 76.7791C97.0649 87.4151 88.5232 96.0372 77.9866 96.0372C67.45 96.0372 58.9083 87.4151 58.9083 76.7791C58.9083 66.1432 67.45 57.5211 77.9866 57.5211C88.5232 57.5211 97.0649 66.1432 97.0649 76.7791Z" fill="rgb(197,53,140)" fill-rule="evenodd" />
</svg>
