<svg viewBox="0 0 112 112" xmlns="http://www.w3.org/2000/svg" xmlns:xlink="http://www.w3.org/1999/xlink" width="112.000000" height="112.000366" fill="none" customFrame="#000000">
	<rect id="доставка" width="111.000000" height="111.000351" x="0.500000" y="0.500000" stroke="rgb(0,0,0)" stroke-opacity="0" stroke-width="1" />
	<path id="Union" d="M16 32.4865C16 31.6655 16.6655 31 17.4865 31L33.7247 31L52.9158 31L68.4167 31C69.2376 31 69.9031 31.6655 69.9031 32.4865L69.9031 39.84L82.4412 39.84C83.0807 39.84 83.6486 40.249 83.8512 40.8556L88.6788 55.3102L93.513 55.3102C94.334 55.3102 94.9995 55.9757 94.9995 56.7966L94.9995 76.6868C94.9995 77.5078 94.334 78.1733 93.513 78.1733L91.1921 78.1733C90.4702 83.165 86.1664 87.0004 80.965 87.0004C75.5105 87.0004 71.043 82.7826 70.6582 77.4366L68.4311 77.4366L68.4167 77.4367L46.984 77.4367C46.5992 82.7826 42.1317 87.0004 36.6772 87.0004C31.2228 87.0004 26.7553 82.7826 26.3705 77.4367L17.4865 77.4367C16.6655 77.4367 16 76.7712 16 75.9502L16 32.4865ZM70.872 74.4637C71.8907 69.8363 76.0226 66.3735 80.965 66.3735C86.1663 66.3735 90.4701 70.2088 91.1921 75.2003L92.0265 75.2003L92.0265 58.2831L87.6081 58.2831L69.9035 58.2831L69.9035 74.4637L70.872 74.4637ZM66.9302 74.4637L46.7702 74.4637C45.7516 69.8364 41.6196 66.3735 36.6772 66.3735C31.7349 66.3735 27.6029 69.8364 26.5843 74.4637L18.973 74.4637L18.973 33.973L32.2382 33.973L32.2382 47.22C32.2382 47.7429 32.5131 48.2275 32.9619 48.4958C33.4108 48.7642 33.9677 48.7769 34.4284 48.5293L43.3203 43.7508L52.2121 48.5293C52.6728 48.7769 53.2297 48.7642 53.6786 48.4958C54.1274 48.2275 54.4023 47.7429 54.4023 47.22L54.4023 33.973L66.9302 33.973L66.9302 74.4637ZM69.9031 55.3102L85.5444 55.3102L81.3705 42.813L69.9031 42.813L69.9031 55.3102ZM35.2112 33.973L51.4293 33.973L51.4293 44.7336L44.0239 40.7539C43.5845 40.5177 43.056 40.5177 42.6166 40.7539L35.2112 44.7336L35.2112 33.973ZM47.0012 57.5332C47.0012 56.7123 47.6667 56.0468 48.4877 56.0468L58.8214 56.0468C59.6423 56.0468 60.3078 56.7123 60.3078 57.5332C60.3078 58.3542 59.6423 59.0197 58.8214 59.0197L48.4877 59.0197C47.6667 59.0197 47.0012 58.3542 47.0012 57.5332ZM51.4402 64.887C50.6192 64.887 49.9537 65.5525 49.9537 66.3735C49.9537 67.1945 50.6192 67.86 51.4402 67.86L58.8206 67.86C59.6415 67.86 60.3071 67.1945 60.3071 66.3735C60.3071 65.5525 59.6415 64.887 58.8206 64.887L51.4402 64.887ZM36.6772 84.0274C40.7479 84.0274 44.0379 80.7355 44.0379 76.6869C44.0379 72.6384 40.7479 69.3465 36.6772 69.3465C32.6066 69.3465 29.3166 72.6384 29.3166 76.6869C29.3166 80.7355 32.6066 84.0274 36.6772 84.0274ZM88.3257 76.6869C88.3257 80.7355 85.0357 84.0274 80.965 84.0274C76.8943 84.0274 73.6043 80.7355 73.6043 76.6869C73.6043 72.6384 76.8943 69.3465 80.965 69.3465C85.0357 69.3465 88.3257 72.6384 88.3257 76.6869Z" fill="rgb(197,53,140)" fill-rule="evenodd" />
</svg>
