<svg viewBox="0 0 112 112" xmlns="http://www.w3.org/2000/svg" xmlns:xlink="http://www.w3.org/1999/xlink" width="112.000000" height="112.000000" fill="none" customFrame="#000000">
	<rect id="оплата" width="111.000000" height="111.000000" x="0.500000" y="0.500000" stroke="rgb(0,0,0)" stroke-opacity="0" stroke-width="1" />
	<path id="Vector 52" d="M19 45.4098L19 87L76.5761 87L76.5761 55.3411L60.3367 45.4098L59.0449 45.4098L19 45.4098ZM76.5761 55.3411L93 46.8086L93 18.3669C93 18.3669 90.6304 16.6929 89.3538 15.1047C88.1216 13.5718 86.9102 11 86.9102 11L66.288 11C66.288 11 65.6618 13.5659 64.4629 15.1047C63.2103 16.7124 60.3367 18.3669 60.3367 18.3669L60.3367 45.4098M71.9626 32.0748L75.2843 35.0589L82.4813 28.9975M38.6534 53.4295L38.6534 64.6196L27.3965 64.6196L27.3965 53.4295L38.6534 53.4295ZM32.1945 73.5718L32.1945 78.0479L26.2893 78.0479L26.2893 73.5718L32.1945 73.5718ZM69.2868 73.5718L69.2868 78.0479L63.3815 78.0479L63.3815 73.5718L69.2868 73.5718ZM56.9227 73.5718L56.9227 78.0479L51.0175 78.0479L51.0175 73.5718L56.9227 73.5718ZM44.5586 73.5718L44.5586 78.0479L38.6534 78.0479L38.6534 73.5718L44.5586 73.5718Z" fill-rule="evenodd" stroke="rgb(197,53,140)" stroke-linecap="round" stroke-linejoin="round" stroke-width="3" />
</svg>
