<svg viewBox="0 0 112 112" xmlns="http://www.w3.org/2000/svg" xmlns:xlink="http://www.w3.org/1999/xlink" width="112.000000" height="112.000000" fill="none" customFrame="#000000">
	<rect id="спецпредложения" width="111.000000" height="111.000000" x="0.500000" y="0.500000" stroke="rgb(0,0,0)" stroke-opacity="0" stroke-width="1" />
	<path id="Vector 51" d="M93 82L47.7907 82L17 82L17 31L47.7907 31L93 31L93 82ZM47.7907 31L47.7907 82M24.6279 56.3591L39.3256 56.3591M24.6279 67.7238L39.3256 67.7238M24.6279 44.6188L39.3256 44.6188M78.0251 41.4254L63.4186 70.0718M78.9535 70.9171C75.5113 70.9171 72.7209 68.0577 72.7209 64.5304C72.7209 61.0031 75.5113 58.1436 78.9535 58.1436C82.3956 58.1436 85.1861 61.0031 85.1861 64.5304C85.1861 68.0577 82.3956 70.9171 78.9535 70.9171ZM62.2093 53.6354C58.7672 53.6354 55.9767 50.7759 55.9767 47.2486C55.9767 43.7213 58.7672 40.8619 62.2093 40.8619C65.6515 40.8619 68.4419 43.7213 68.4419 47.2486C68.4419 50.7759 65.6515 53.6354 62.2093 53.6354Z" opacity="0.899999976" fill-rule="evenodd" stroke="rgb(197,53,140)" stroke-linecap="round" stroke-linejoin="round" stroke-width="3" />
</svg>
